<svg width="32" height="32" viewBox="0 0 32 32" fill="none" xmlns="http://www.w3.org/2000/svg">
<path d="M16 0C7.17663 0 0 7.17663 0 16C0 24.8234 7.17663 32 16 32C24.8207 32 32 24.8234 32 16C32 7.17663 24.8207 0 16 0ZM22.0163 19.1549L16.4511 24.7201C16.3886 24.7853 16.3098 24.8342 16.2255 24.8696C16.1413 24.9049 16.0489 24.9239 15.9592 24.9239C15.8696 24.9239 15.7772 24.9049 15.6929 24.8696C15.6087 24.8342 15.5326 24.7853 15.4674 24.7201L9.90217 19.1549C9.63043 18.8832 9.63043 18.4429 9.90217 18.1712C10.1739 17.8995 10.6141 17.8995 10.8859 18.1712L15.2636 22.5489V7.53261C15.2636 7.14946 15.5761 6.83696 15.9592 6.83696C16.3424 6.83696 16.6549 7.14946 16.6549 7.53261V22.5489L21.0326 18.1712C21.3043 17.8995 21.7446 17.8995 22.0163 18.1712C22.288 18.4429 22.288 18.8832 22.0163 19.1549Z" fill="white"/>
</svg>
