<svg width="44" height="36" viewBox="0 0 44 36" fill="none" xmlns="http://www.w3.org/2000/svg">
<path d="M2.0625 0C0.926514 0 0 0.932993 0 2.07692C0 2.97746 0.577393 3.74008 1.375 4.02674V23.6683C0.577393 23.9522 0 24.7148 0 25.6154V29.7692C0 30.9132 0.926514 31.8462 2.0625 31.8462H5.55371C5.8894 34.1908 7.89282 36 10.3125 36C12.7322 36 14.7356 34.1908 15.0713 31.8462H30.3037C30.6394 34.1908 32.6428 36 35.0625 36C37.4822 36 39.4856 34.1908 39.8213 31.8462H41.9375C43.0735 31.8462 44 30.9132 44 29.7692V25.6154C44 24.704 43.4119 23.9387 42.6008 23.6575C42.6089 23.6196 42.625 23.5817 42.625 23.5385V20.8909C42.625 20.2257 42.437 19.5766 42.0771 19.0168L37.1384 11.2825C36.5046 10.2873 35.425 9.69231 34.2488 9.69231H33V8.30769C33 7.92638 32.6912 7.61538 32.3125 7.61538C31.9338 7.61538 31.625 7.92638 31.625 8.30769V9.69231H28.875V4.02674C29.6726 3.74008 30.25 2.97746 30.25 2.07692C30.25 0.932993 29.3235 0 28.1875 0H2.0625ZM2.0625 1.38462H28.1875C28.5662 1.38462 28.875 1.69561 28.875 2.07692C28.875 2.45823 28.5662 2.76923 28.1875 2.76923H2.0625C1.68384 2.76923 1.375 2.45823 1.375 2.07692C1.375 1.69561 1.68384 1.38462 2.0625 1.38462ZM2.75 4.15385H27.5V23.5385H2.75V4.15385ZM15.125 5.53846C10.5757 5.53846 6.875 9.26502 6.875 13.8462C6.875 18.4273 10.5757 22.1538 15.125 22.1538C19.6743 22.1538 23.375 18.4273 23.375 13.8462C23.375 9.26502 19.6743 5.53846 15.125 5.53846ZM15.125 6.92308C18.917 6.92308 22 10.0276 22 13.8462C22 17.6647 18.917 20.7692 15.125 20.7692C11.333 20.7692 8.25 17.6647 8.25 13.8462C8.25 10.0276 11.333 6.92308 15.125 6.92308ZM28.875 11.0769H34.2488C34.9524 11.0769 35.6023 11.4339 35.9836 12.0288L40.9224 19.7659C41.1372 20.104 41.25 20.4934 41.25 20.8909V23.5385H28.875V11.0769ZM18.5625 11.1148C18.3879 11.1148 18.2107 11.1824 18.0764 11.3176L13.75 15.6743L12.1736 14.0868C11.905 13.8164 11.47 13.8164 11.2014 14.0868C10.9329 14.3573 10.9329 14.7954 11.2014 15.0658L13.2639 17.1427C13.3982 17.2779 13.5728 17.3456 13.75 17.3456C13.9272 17.3456 14.1018 17.2779 14.2361 17.1427L19.0486 12.2966C19.3171 12.0261 19.3171 11.588 19.0486 11.3176C18.9143 11.1824 18.7371 11.1148 18.5625 11.1148ZM31.625 12.4615C30.8677 12.4615 30.25 13.0835 30.25 13.8462V18C30.25 18.7626 30.8677 19.3846 31.625 19.3846H36.5718C37.0713 19.3846 37.5332 19.1115 37.7749 18.6707C38.0166 18.2326 38.0032 17.6944 37.7373 17.2671L35.1592 13.1106C34.9067 12.7049 34.469 12.4615 33.9937 12.4615H31.625ZM31.625 13.8462H33.9937L36.5771 18H31.625V13.8462ZM30.9375 20.7692C30.5588 20.7692 30.25 21.0802 30.25 21.4615C30.25 21.8428 30.5588 22.1538 30.9375 22.1538H32.3125C32.6912 22.1538 33 21.8428 33 21.4615C33 21.0802 32.6912 20.7692 32.3125 20.7692H30.9375ZM2.0625 24.9231H41.9375C42.3162 24.9231 42.625 25.2341 42.625 25.6154V29.7692C42.625 30.1505 42.3162 30.4615 41.9375 30.4615H39.8213C39.4856 28.1169 37.4822 26.3077 35.0625 26.3077C32.6428 26.3077 30.6394 28.1169 30.3037 30.4615H15.0713C14.7356 28.1169 12.7322 26.3077 10.3125 26.3077C7.89282 26.3077 5.8894 28.1169 5.55371 30.4615H2.0625C1.68384 30.4615 1.375 30.1505 1.375 29.7692V29.0769C1.75366 29.0769 2.0625 28.7659 2.0625 28.3846V27C2.0625 26.6187 1.75366 26.3077 1.375 26.3077V25.6154C1.375 25.2341 1.68384 24.9231 2.0625 24.9231ZM4.8125 26.3077C4.43384 26.3077 4.125 26.6187 4.125 27V28.3846C4.125 28.7659 4.43384 29.0769 4.8125 29.0769C5.19116 29.0769 5.5 28.7659 5.5 28.3846V27C5.5 26.6187 5.19116 26.3077 4.8125 26.3077ZM15.8125 26.3077C15.4338 26.3077 15.125 26.6187 15.125 27V28.3846C15.125 28.7659 15.4338 29.0769 15.8125 29.0769C16.1912 29.0769 16.5 28.7659 16.5 28.3846V27C16.5 26.6187 16.1912 26.3077 15.8125 26.3077ZM19.25 26.3077C18.8713 26.3077 18.5625 26.6187 18.5625 27V28.3846C18.5625 28.7659 18.8713 29.0769 19.25 29.0769C19.6287 29.0769 19.9375 28.7659 19.9375 28.3846V27C19.9375 26.6187 19.6287 26.3077 19.25 26.3077ZM22.6875 26.3077C22.3088 26.3077 22 26.6187 22 27V28.3846C22 28.7659 22.3088 29.0769 22.6875 29.0769C23.0662 29.0769 23.375 28.7659 23.375 28.3846V27C23.375 26.6187 23.0662 26.3077 22.6875 26.3077ZM26.125 26.3077C25.7463 26.3077 25.4375 26.6187 25.4375 27V28.3846C25.4375 28.7659 25.7463 29.0769 26.125 29.0769C26.5037 29.0769 26.8125 28.7659 26.8125 28.3846V27C26.8125 26.6187 26.5037 26.3077 26.125 26.3077ZM29.5625 26.3077C29.1838 26.3077 28.875 26.6187 28.875 27V28.3846C28.875 28.7659 29.1838 29.0769 29.5625 29.0769C29.9412 29.0769 30.25 28.7659 30.25 28.3846V27C30.25 26.6187 29.9412 26.3077 29.5625 26.3077ZM40.5625 26.3077C40.1838 26.3077 39.875 26.6187 39.875 27V28.3846C39.875 28.7659 40.1838 29.0769 40.5625 29.0769C40.9412 29.0769 41.25 28.7659 41.25 28.3846V27C41.25 26.6187 40.9412 26.3077 40.5625 26.3077ZM10.3125 27.6923C12.2085 27.6923 13.75 29.2446 13.75 31.1538C13.75 33.0631 12.2085 34.6154 10.3125 34.6154C8.4165 34.6154 6.875 33.0631 6.875 31.1538C6.875 29.2446 8.4165 27.6923 10.3125 27.6923ZM35.0625 27.6923C36.9585 27.6923 38.5 29.2446 38.5 31.1538C38.5 33.0631 36.9585 34.6154 35.0625 34.6154C33.1665 34.6154 31.625 33.0631 31.625 31.1538C31.625 29.2446 33.1665 27.6923 35.0625 27.6923ZM10.3125 29.7692C9.55249 29.7692 8.9375 30.3885 8.9375 31.1538C8.9375 31.9192 9.55249 32.5385 10.3125 32.5385C11.0725 32.5385 11.6875 31.9192 11.6875 31.1538C11.6875 30.3885 11.0725 29.7692 10.3125 29.7692ZM35.0625 29.7692C34.3025 29.7692 33.6875 30.3885 33.6875 31.1538C33.6875 31.9192 34.3025 32.5385 35.0625 32.5385C35.8225 32.5385 36.4375 31.9192 36.4375 31.1538C36.4375 30.3885 35.8225 29.7692 35.0625 29.7692Z" fill="white"/>
</svg>
