<svg width="29" height="40" viewBox="0 0 29 40" fill="none" xmlns="http://www.w3.org/2000/svg">
<path fill-rule="evenodd" clip-rule="evenodd" d="M5.89073 24.5668L8.17078 25.9742L8.96776 26.6701L10.9522 27.445L13.3636 26.6701H15.0611L16.1669 27.445L18.5163 26.6701L19.7512 25.5087L22.2648 24.5668L26.5765 35.3143H20.462L16.6397 39.2948L13.5447 31.9308L10.3843 39.2948L6.85471 35.3143H0.700225L5.89073 24.5668Z" fill="#BAF1FF"/>
<path d="M11.4608 0.00316681C10.3043 0.0369108 9.18682 0.625375 8.55016 1.65362L8.32524 2.01822C8.00403 2.5363 7.43804 2.8554 6.81909 2.86786H6.81742L6.3809 2.87763C4.50775 2.91574 2.98186 4.40536 2.94374 6.23551L2.93375 6.66196C2.92099 7.26665 2.59337 7.82073 2.06404 8.13337L1.69084 8.35473C0.0880365 9.30258 -0.471604 11.339 0.43127 12.9431H0.432936L0.642864 13.3175C0.941556 13.8473 0.941556 14.487 0.642864 15.0168L0.432936 15.3895C-0.469794 16.9934 0.0886586 19.0301 1.69251 19.9779L2.06571 20.1976C2.59603 20.5114 2.92265 21.0644 2.93541 21.6691V21.6707L2.94541 22.0971C2.97697 23.5774 3.98722 24.8213 5.36125 25.2678L0.929433 34.6497C0.807222 34.9079 0.828195 35.2091 0.985063 35.4487C1.14193 35.6883 1.41304 35.8332 1.70417 35.833H7.2656L10.4212 39.6874C10.6079 39.9152 10.903 40.0311 11.1992 39.9928C11.4953 39.9545 11.7494 39.7676 11.869 39.5002L14.5264 33.5673L17.1839 39.5002C17.3035 39.7676 17.5576 39.9545 17.8537 39.9928C18.1499 40.0311 18.445 39.9152 18.6317 39.6874L21.7873 35.833H27.3487C27.6399 35.8332 27.911 35.6883 28.0678 35.4487C28.2247 35.2091 28.2457 34.9079 28.1235 34.6497L23.685 25.2532C25.0359 24.794 26.0246 23.5612 26.0558 22.0971V22.0955L26.0658 21.6707V21.6691C26.0786 21.0644 26.4062 20.5103 26.9355 20.1976L27.3104 19.9763C28.9133 19.0284 29.4712 16.9936 28.5683 15.3895L28.5666 15.3879L28.3534 15.0119C28.0565 14.4828 28.0569 13.8446 28.3551 13.3159L28.5666 12.9431V12.9415C29.469 11.3383 28.911 9.30305 27.3087 8.35473L27.3071 8.35311L26.9339 8.13337C26.4036 7.81973 26.0769 7.26664 26.0642 6.66196V6.66033L26.0542 6.23551V6.23388C26.0152 4.40393 24.4904 2.91324 22.617 2.876L22.1805 2.86624C21.5615 2.85377 20.9944 2.5337 20.6743 2.01659L20.4478 1.65199C19.4776 0.0851406 17.3928 -0.460431 15.751 0.421478V0.423105L15.3678 0.628192C14.8255 0.919993 14.1707 0.919993 13.6284 0.628192L13.2469 0.423105C12.8365 0.202628 12.3988 0.0711556 11.9573 0.0226988C11.7918 0.00452753 11.6261 -0.0016538 11.4608 0.00316681ZM11.4175 1.66502C11.7549 1.64096 12.1045 1.71069 12.4255 1.88312L12.8054 2.08821C13.8583 2.65478 15.1396 2.65478 16.1925 2.08821L16.5741 1.8815V1.88312C17.4301 1.42331 18.4827 1.69809 18.9883 2.51466L19.2148 2.87926C19.8364 3.88281 20.9435 4.50824 22.1438 4.53297L22.582 4.54273C23.559 4.56215 24.3299 5.31365 24.3498 6.26806V6.26969L24.3581 6.69614C24.3829 7.86986 25.0235 8.95131 26.0508 9.55921L26.424 9.78057C27.2594 10.2742 27.5416 11.3015 27.0722 12.1374L26.8606 12.5118C26.2806 13.5404 26.2806 14.7906 26.8606 15.8192L26.8622 15.8208V15.8225L27.0738 16.192C27.5443 17.0279 27.2609 18.0566 26.4257 18.5504L26.0525 18.7718C25.0242 19.3792 24.3845 20.4612 24.3598 21.6349L24.3514 22.0613V22.063C24.3315 23.0174 23.5606 23.7689 22.5837 23.7883L22.1455 23.7981C20.9447 23.8228 19.8385 24.447 19.2165 25.4501V25.4518L18.9899 25.8164C18.4843 26.6329 17.4317 26.9077 16.5757 26.4479V26.4495L16.1942 26.2428C15.1413 25.6762 13.8599 25.6762 12.807 26.2428L12.4255 26.4495V26.4479C11.5698 26.9076 10.5169 26.6322 10.0113 25.8164L9.78474 25.4518C9.16317 24.4482 8.05611 23.8228 6.85574 23.7981H6.85407L6.41756 23.7883C5.44061 23.7689 4.6697 23.0174 4.64983 22.063V22.0613L4.6415 21.6349C4.61672 20.4612 3.97608 19.3797 2.94874 18.7718L2.57554 18.5504C1.73971 18.0564 1.45676 17.0282 1.92743 16.192L2.13735 15.8208V15.8192C2.71649 14.7909 2.71703 13.5399 2.13735 12.5118L1.92576 12.1391H1.92743C1.4569 11.3031 1.73872 10.2744 2.57387 9.78057L2.94708 9.55921C3.97432 8.95198 4.61451 7.87045 4.63983 6.69777V6.69614L4.64983 6.26969C4.6697 5.31528 5.43894 4.56215 6.41589 4.54273H6.41756L6.85407 4.5346C8.0555 4.5104 9.16248 3.88453 9.78474 2.88088L10.0113 2.51629C10.2641 2.108 10.6525 1.83375 11.086 1.72036C11.1943 1.69201 11.305 1.67303 11.4175 1.66502ZM20.7127 8.40356L13.6834 19.138L8.03367 14.1704L6.89073 15.4107L14.0366 21.6918L22.1488 9.30204L20.7127 8.40356ZM21.9223 25.5022L26.0142 34.1663H21.3774C21.1182 34.1662 20.873 34.2811 20.711 34.4788L18.1802 37.5681L15.4578 31.4855L16.894 28.279C18.265 28.4882 19.6944 27.8984 20.4494 26.679L20.676 26.3144C20.951 25.8709 21.4088 25.5865 21.9223 25.5022ZM7.12731 25.5087C7.62129 25.6035 8.05981 25.8855 8.32524 26.3144L8.55183 26.679C9.52206 28.2449 11.6066 28.7916 13.2486 27.9095V27.9079L13.6318 27.7028C14.1523 27.4227 14.774 27.4192 15.3028 27.6768L10.8727 37.5681L8.3419 34.4788C8.17988 34.2811 7.93467 34.1662 7.67546 34.1663H3.03871L7.12731 25.5087Z" fill="white"/>
</svg>
