<svg width="39" height="38" viewBox="0 0 39 38" fill="none" xmlns="http://www.w3.org/2000/svg">
<path fill-rule="evenodd" clip-rule="evenodd" d="M2.49519 2.4551L3.4061 5.04169L4.3871 7.91269L6.58733 8.98264L7.92581 10.3199V12.2494L5.58733 13.4782L3.4061 17.1861L6.58733 15.3447L9.08213 14.6078L11.7778 15.3328L14.0579 16.1518H16.2714L13.0875 13.477L11.7778 12.2494V9.82061L13.0875 8.98264L14.8549 7.22638L16.2714 5.04169L16.9412 3.06889L18.1402 1.84131L2.49519 2.4551Z" fill="#BAF1FF"/>
<path d="M1.53731 0C0.689944 0 0 0.688675 0 1.53448C0 2.38029 0.689944 3.06896 1.53731 3.06896H2.05975L3.56823 6.45561C4.13581 7.73107 5.06962 8.78486 6.26933 9.503L7.37908 10.1683V11.9282L6.26933 12.5935C5.07023 13.3117 4.13581 14.3655 3.56823 15.6409L2.05975 19.0276H1.53731C0.688714 19.0276 0 19.715 0 20.5621C0 21.4091 0.688714 22.0965 1.53731 22.0965H7.80904C7.82134 22.1518 7.83998 22.2067 7.85228 22.262C8.37496 24.22 9.47644 25.6569 10.6386 25.9699C12.5572 32.0096 17.4269 38 23.2133 38C28.9998 38 33.8695 32.0096 35.788 25.9699C36.9502 25.6569 38.0516 24.22 38.5804 22.262C39.2568 19.7454 38.6847 17.5669 37.2581 17.1802C37.0256 17.117 36.6934 17.095 36.2937 17.2246C36.2617 15.7772 36.0559 14.5435 35.6679 13.4915C35.5148 13.0771 35.5605 12.9316 35.5562 12.9316C35.7321 12.7941 36.6326 12.9149 37.4911 13.2697C37.702 13.3568 37.9445 13.3198 38.1204 13.1738C38.2963 13.0271 38.3762 12.7948 38.327 12.572C36.7712 5.46792 31.4923 1.22759 24.2042 1.22759H23.2145C22.179 1.22759 20.9072 1.3946 19.6595 1.71071C19.6663 1.65178 19.6775 1.59463 19.6775 1.53448C19.6775 0.688675 18.9876 0 18.1402 0H1.53731ZM1.53731 1.22759H18.1402C18.3099 1.22759 18.4477 1.36507 18.4477 1.53448C18.4477 1.70389 18.3099 1.84131 18.1402 1.84131L1.53731 1.84138C1.36759 1.84138 1.22985 1.70389 1.22985 1.53448C1.22985 1.36507 1.36759 1.22759 1.53731 1.22759ZM23.2145 2.45517H24.2042C30.6025 2.45517 35.1609 5.83622 36.8605 11.7783C36.1189 11.6046 35.2261 11.5461 34.7059 12.0445C34.273 12.4588 34.2093 13.0884 34.5149 13.9158C34.9946 15.2152 35.1613 16.8592 35.0266 18.9437C35.0045 19.2819 35.2612 19.5743 35.6007 19.5958C35.6142 19.5964 35.6286 19.597 35.6415 19.597C35.9631 19.597 36.2331 19.3481 36.254 19.0228C36.2639 18.8706 36.2677 18.7247 36.2744 18.5768C36.3095 18.5627 36.3463 18.5569 36.3789 18.5361C36.5388 18.4317 36.7664 18.3217 36.9386 18.3646C37.4791 18.5126 37.9226 19.9728 37.3938 21.9431C37.1417 22.8822 36.7603 23.5945 36.3729 24.0794C35.9855 24.5643 35.5915 24.8095 35.3148 24.8095C35.0443 24.8095 34.8051 24.988 34.7251 25.2458C33.0218 30.9786 28.5201 36.7724 23.2133 36.7724C17.9066 36.7724 13.4049 30.9786 11.7016 25.2458C11.6216 24.988 11.3824 24.8095 11.1118 24.8095C10.5769 24.8095 9.59251 23.8704 9.08212 22.0965H18.1402C18.9888 22.0965 19.6775 21.4091 19.6775 20.5621C19.6775 19.715 18.9888 19.0276 18.1402 19.0276H17.6178L16.1093 15.6397C15.5417 14.3643 14.6079 13.3105 13.4082 12.5923L12.2985 11.9282V10.1683L13.4082 9.503C14.6073 8.78486 15.5417 7.73107 16.1093 6.45561L17.2202 3.96208C18.7293 3.08865 21.189 2.45517 23.2145 2.45517ZM3.4061 3.06896H16.2726L14.9851 5.9581C14.5209 7.00155 13.7573 7.86362 12.7765 8.45164L11.6667 9.11578C11.2978 9.33552 11.0686 9.7393 11.0686 10.1683V11.9282C11.0686 12.3566 11.2972 12.7598 11.6655 12.9808L12.7753 13.6461C13.4892 14.0739 14.0846 14.6503 14.5372 15.3328L13.1248 14.7682C10.7432 13.9003 8.77428 13.902 6.53596 14.7754L5.14037 15.3316C5.59296 14.6491 6.18834 14.0727 6.90227 13.6449L8.01201 12.9808C8.38035 12.7598 8.60892 12.3566 8.60892 11.9282V10.1671C8.60892 9.7381 8.38035 9.33493 8.01201 9.11458L6.90227 8.45044C5.92085 7.86243 5.15727 7.00035 4.69239 5.95691L3.4061 3.06896ZM23.0932 3.68515C22.7544 3.71216 22.5017 4.00692 22.5288 4.3445L22.6248 5.53133C22.6501 5.85295 22.9189 6.09717 23.2362 6.09717C23.2528 6.09717 23.2688 6.096 23.2854 6.09477C23.6242 6.06776 23.8769 5.77181 23.8499 5.43422L23.755 4.2474C23.7279 3.9092 23.4222 3.65262 23.0932 3.68515ZM26.545 3.84939C26.2068 3.79476 25.8929 4.02259 25.8388 4.35649L25.6466 5.52893C25.5913 5.86345 25.8183 6.1792 26.1534 6.23383C26.1873 6.23936 26.2211 6.24222 26.2543 6.24222C26.5501 6.24222 26.8104 6.02749 26.8596 5.72673L27.0518 4.55429C27.1065 4.21978 26.8801 3.9034 26.545 3.84939ZM29.6028 4.91871C29.3633 4.91675 29.1345 5.05697 29.0335 5.29037L28.5675 6.3693C28.4328 6.67988 28.5764 7.04109 28.8882 7.1749C28.9675 7.20927 29.0502 7.22645 29.132 7.22645C29.3699 7.22645 29.5962 7.08742 29.6965 6.85602L30.1625 5.77708C30.2971 5.46589 30.1535 5.1047 29.8418 4.97028C29.764 4.93622 29.6826 4.91939 29.6028 4.91871ZM32.3087 6.84762C32.1525 6.86727 32.0046 6.94608 31.9003 7.08019L31.1917 7.99249C30.9839 8.26011 31.0317 8.64516 31.2998 8.85324C31.4117 8.9404 31.5453 8.98271 31.6769 8.98271C31.8602 8.98271 32.0422 8.90005 32.1634 8.74415L32.8708 7.83305C33.0786 7.56544 33.0308 7.18038 32.7627 6.9723C32.6289 6.86826 32.4649 6.82798 32.3087 6.84762ZM17.5806 9.6025C17.1277 9.64422 16.6992 9.88494 16.4348 10.2858L14.9563 12.5264C14.7694 12.8094 14.8482 13.1898 15.1317 13.3764C15.2356 13.4451 15.3529 13.4771 15.4692 13.4771C15.669 13.4771 15.8651 13.3806 15.9832 13.2013L17.4616 10.962C17.5465 10.8337 17.7148 10.7877 17.8532 10.8553L19.2956 11.5566C21.9189 12.832 24.6912 13.4783 27.537 13.4783C27.8765 13.4783 28.1519 13.2033 28.1519 12.8645C28.1519 12.5257 27.8765 12.2495 27.537 12.2495C24.8799 12.2495 22.2884 11.6457 19.8349 10.4525L18.3924 9.75115C18.1328 9.62479 17.8523 9.57747 17.5806 9.6025ZM30.0003 12.2495C29.6609 12.2495 29.3854 12.5245 29.3854 12.8633C29.3854 13.2021 29.6609 13.4771 30.0003 13.4771H31.8487C32.1881 13.4771 32.4636 13.2021 32.4636 12.8633C32.4636 12.5245 32.1881 12.2495 31.8487 12.2495H30.0003ZM9.78712 15.3448C10.7062 15.3447 11.6426 15.5346 12.6852 15.9143L15.3575 16.9824C15.3587 16.983 15.3598 16.9818 15.3611 16.9824L16.2714 19.0276H3.4061L4.31647 16.9836L6.98754 15.9167C7.96527 15.5355 8.86804 15.3449 9.78712 15.3448ZM29.5163 18.4138C28.8371 18.4138 28.2865 18.9634 28.2865 19.6414C28.2865 20.3193 28.8371 20.8689 29.5163 20.8689C30.1955 20.8689 30.7461 20.3193 30.7461 19.6414C30.7461 18.9634 30.1955 18.4138 29.5163 18.4138ZM1.53731 20.2552H18.1402C18.3124 20.2552 18.4477 20.3902 18.4477 20.5621C18.4477 20.7339 18.3124 20.8689 18.1402 20.8689H1.53731C1.36513 20.8689 1.22985 20.7339 1.22985 20.5621C1.22985 20.3902 1.36513 20.2552 1.53731 20.2552Z" fill="white"/>
</svg>
